<svg xmlns="http://www.w3.org/2000/svg" width="579" height="474" fill="none"><path fill="#0B3D91" d="M268.83 473.59c130.6 0 236.47-105.88 236.47-236.48S399.43.63 268.83.63C138.24.63 32.37 106.51 32.37 237.11s105.87 236.48 236.46 236.48Z"/><path fill="#fff" d="M254.87 48.7a2.65 2.65 0 1 0 0-5.3 2.65 2.65 0 0 0 0 5.3ZM282.09 52.24a2.65 2.65 0 1 0 0-5.3 2.65 2.65 0 0 0 0 5.3ZM317.79 100.31a2.65 2.65 0 1 0 0-5.3 2.65 2.65 0 0 0 0 5.3ZM121.97 347.75a2.65 2.65 0 1 0 0-5.3 2.65 2.65 0 0 0 0 5.3ZM128.87 368.96a2.65 2.65 0 1 0 0-5.3 2.65 2.65 0 0 0 0 5.3ZM96 350.26a1.99 1.99 0 1 0 0-3.97 1.99 1.99 0 0 0 0 3.97ZM203.8 391.93a2 2 0 1 0 0-3.98 2 2 0 0 0 0 3.98ZM372.88 356.8a1.99 1.99 0 1 0 0-3.97 1.99 1.99 0 0 0 0 3.97ZM422.01 303.43a2 2 0 1 0 0-3.98 2 2 0 0 0 0 3.98ZM181.18 115.15a1.99 1.99 0 1 0 0-3.97 1.99 1.99 0 0 0 0 3.97ZM235.26 75.43a1.99 1.99 0 1 0 0-3.97 1.99 1.99 0 0 0 0 3.97ZM229.38 71.55a1.99 1.99 0 1 0 0-3.98 1.99 1.99 0 0 0 0 3.98ZM224.08 67.66a1.99 1.99 0 1 0 0-3.97 1.99 1.99 0 0 0 0 3.97ZM189.66 125.41a1.99 1.99 0 1 0 0-3.97 1.99 1.99 0 0 0 0 3.97ZM269.32 22.06a1.98 1.98 0 1 0 0-3.97 1.98 1.98 0 0 0 0 3.97ZM282.4 79.32a1.99 1.99 0 1 0 0-3.97 1.99 1.99 0 0 0 0 3.97ZM261.76 68.14a1.99 1.99 0 1 0 0-3.97 1.99 1.99 0 0 0 0 3.97ZM226.42 83.35a1.99 1.99 0 1 0 0-3.98 1.99 1.99 0 0 0 0 3.98ZM382.3 409.25a1.99 1.99 0 1 0 0-3.97 1.99 1.99 0 0 0 0 3.97ZM118.62 360.52a2 2 0 1 0 0-3.98 2 2 0 0 0 0 3.98ZM256.82 386.15a2 2 0 1 0 0-3.99 2 2 0 0 0 0 3.99ZM159.75 358.93a1.99 1.99 0 1 0 0-3.98 1.99 1.99 0 0 0 0 3.98ZM176.94 386.99a1.99 1.99 0 1 0 0-3.98 1.99 1.99 0 0 0 0 3.98ZM303.47 369.31a1.99 1.99 0 1 0 0-3.97 1.99 1.99 0 0 0 0 3.97ZM373.23 329.94a1.99 1.99 0 1 0 0-3.97 1.99 1.99 0 0 0 0 3.97ZM426.12 354.1a1.99 1.99 0 1 0 0-3.97 1.99 1.99 0 0 0 0 3.97ZM444.15 365.64a1.99 1.99 0 1 0 0-3.97 1.99 1.99 0 0 0 0 3.97ZM447.11 334.18a1.99 1.99 0 1 0 0-3.97 1.99 1.99 0 0 0 0 3.97ZM184.13 289.64a1.98 1.98 0 1 0 0-3.97 1.98 1.98 0 0 0 0 3.97ZM184.89 335.9a2.65 2.65 0 1 0 0-5.3 2.65 2.65 0 0 0 0 5.3ZM200.8 369.49a2.65 2.65 0 1 0 0-5.3 2.65 2.65 0 0 0 0 5.3ZM391.3 334.5a2.65 2.65 0 1 0 0-5.31 2.65 2.65 0 0 0 0 5.3ZM459.88 330.6a2.65 2.65 0 1 0 0-5.3 2.65 2.65 0 0 0 0 5.3ZM425.94 316.11a2.65 2.65 0 1 0 0-5.3 2.65 2.65 0 0 0 0 5.3ZM391.3 317.52a2.65 2.65 0 1 0 0-5.3 2.65 2.65 0 0 0 0 5.3ZM319.86 44.4l6.59-.64-6.58-.37a2.92 2.92 0 0 0-2.51-2.43l-.63-6.57-.38 6.62a2.91 2.91 0 0 0-2.25 2.5l-6.74.61 6.79.37a2.92 2.92 0 0 0 2.32 2.24l.61 6.76.36-6.75a2.95 2.95 0 0 0 2.42-2.35ZM208.6 117.79l6.6-.63-6.59-.38a2.92 2.92 0 0 0-2.5-2.43l-.64-6.56-.37 6.61a2.9 2.9 0 0 0-2.26 2.5l-6.74.61 6.8.37a2.92 2.92 0 0 0 2.31 2.24l.61 6.76.37-6.75a2.93 2.93 0 0 0 2.41-2.34ZM455.05 311.83l6.59-.63-6.58-.37a2.92 2.92 0 0 0-2.51-2.43l-.63-6.56-.37 6.61a2.91 2.91 0 0 0-2.25 2.5l-6.74.61 6.78.37a2.92 2.92 0 0 0 2.32 2.24l.62 6.76.36-6.75a2.94 2.94 0 0 0 2.4-2.35ZM186.33 413.3l6.6-.64-6.59-.37a2.93 2.93 0 0 0-2.5-2.43l-.64-6.56-.37 6.61a2.91 2.91 0 0 0-2.25 2.5l-6.74.61 6.78.37a2.91 2.91 0 0 0 2.32 2.24l.62 6.76.36-6.75a2.94 2.94 0 0 0 2.41-2.35ZM434.1 363.8l6.6-.62-6.58-.37a2.92 2.92 0 0 0-2.51-2.44l-.63-6.56-.38 6.61a2.9 2.9 0 0 0-2.25 2.5l-6.74.61 6.8.37a2.92 2.92 0 0 0 2.31 2.23l.61 6.77.37-6.75a2.93 2.93 0 0 0 2.4-2.34Z"/><path fill="#FC3D21" d="M324.91 180.46c-27.5 10.7-54.3 20.23-76.94 27.31C202 222.17 76.2 261.14.2 310.27l6.36 2.48c46.3-26.15 76.4-34.37 105.33-43.48 31.46-9.9 133.16-33.7 179.2-46.65a778.12 778.12 0 0 0 53.08-17.09 474.1 474.1 0 0 0-19.26-25.07Zm33.59 46.3a304.99 304.99 0 0 1-16.14 10.35c-22.62 13.08-132.9 88.37-158 105.69-25.09 17.32-94.72 83.07-115.22 102.15l-.7 7.78c66.09-59.39 86.82-74.04 113.1-94.03 32.52-24.74 99.78-70.51 122.65-85.18a3964.24 3964.24 0 0 0 59.25-38.72l-.86-1.46c-1.33-2.18-2.7-4.37-4.08-6.58Zm103.32-109.13c-32.2 18.88-82.95 41.66-132.19 60.99a429.24 429.24 0 0 1 19.1 25.25c38.7-14.26 81.17-33.4 114.86-56.55-16.05 15.21-69.12 54.88-101.48 76.99 1.67 2.71 3.28 5.43 4.84 8.13 49.03-32.8 82.02-56.95 101.24-73.1 26.5-22.27 86.95-72.11 109.92-138.92-40.3 51.26-87.94 80.6-116.29 97.21Z"/><path fill="#fff" d="M238.4 295.66c-5.2-6.56-12.42-15.35-17.83-22.17a411.92 411.92 0 0 1-20.08-27.52l-6 1.5a418.38 418.38 0 0 0 24.61 34.4c6.55 8.25 12.5 14.9 15.56 19.02.62.84 1.84 2.69 3.5 5.15l5.78-3.92c-1.88-2.05-3.74-4.2-5.53-6.46Zm38.06 34.55c-4.28-4.05-14.67-10.82-25.47-20.98l-7.22 4.97c6.98 9.84 16.5 21.92 23.94 25.45 11.22 5.31 14.24-4.25 8.75-9.44Zm56.7-147.22c-61.82-77.8-137.32-120.55-169.87-94.68-25.29 20.1-14.9 78.8 19.94 140.48l5.36-1.83c-35.18-60.09-44.8-115.93-20.96-134.88 29.97-23.82 102.33 19.09 162.35 94.63a447.68 447.68 0 0 1 32.59 46.63c35.42 58.62 46.29 111.63 21.81 133.27-7.48 6.62-30.36 9.22-60.34-4.27-.42.53.26 1.94.78 2.3 25.87 10.4 50.66 14.36 63.17 4.42 30.07-23.9 6.97-108.27-54.84-186.07ZM68.07 192.22h39.59l33.22 56.38v-44.01c0-4.95-6.27-11.4-8.48-12.37h27.4c-1.69.44-7.08 6.98-7.08 12.37v64.68c0 3.98 5.75 9.46 8.49 11.58h-38.18l-33.75-56.64v44.53c0 4.42 4.33 8.66 8.84 12.29H68.96c4.15-1.77 8.13-7.34 8.48-11.75.35-4.42 0-61.42 0-63.9 0-5.39-5.22-9.8-9.37-13.16Z"/><path fill="#fff" d="M430.19 280.85h52.66c-2.92-.7-6.19-4.15-7.95-8.75-1.77-4.6-29.7-79.88-29.7-79.88H425.2c-5.68 4.09-11.77 8.4-18.27 12.94-.02.16-.03.33-.06.49-.87 5.3-16.54 62.06-17.5 64.86-1.32 3.9-8.13 8.22-10.87 10.52h28.37c-2.83-3.18-5.13-6.28-4.6-9.81.53-3.54 2.12-10.6 2.12-10.6h29.34a53.82 53.82 0 0 1 2.83 9.72c.62 3.62-3.1 7.68-6.36 10.51Zm-23.15-31.55 9.9-32.34L430 249.3h-22.97Zm-4.47-53.86 4.38-3.22h-7.7c.77.7 2.04 1.82 3.32 3.22ZM201.15 271.22c.53-3.54 2.12-10.6 2.12-10.6h29.33a53.9 53.9 0 0 1 2.83 9.72c.62 3.62-3.09 7.68-6.36 10.51h46.37l2.88-1.94a17.66 17.66 0 0 1-4.54-6.8c-1.76-4.6-29.69-79.9-29.69-79.9h-45.95c2.21 2.04 8.57 7.52 7.6 13.44-.86 5.3-16.54 62.06-17.5 64.86-1.32 3.9-8.12 8.22-10.86 10.52h28.36c-2.83-3.18-5.12-6.28-4.6-9.81Zm14.67-54.26 13.07 32.34h-22.97l9.9-32.34ZM361.31 236.21a3590.24 3590.24 0 0 1-27.38 18.06c4.31 2.1 7.75 4.72 8.07 8.11.62 6.38-12.19 9.46-23.76 8.13a28.6 28.6 0 0 1-6.76-1.68l-7.3 4.69c-2.5 1.6-5.54 3.59-9 5.87v9.15c2.29-4.5 7.31-8.54 11.21-8.75 1.68-.09 7.51 5.3 31.55 3.98 11.66-.64 34.2-13.08 33.84-27.4-.2-8.46-4.63-15.06-10.46-20.16Zm-66.14 22.1v9.33l6.28-4.18a46.44 46.44 0 0 1-6.28-5.14Zm57.93-27.95a80.7 80.7 0 0 0-6.68-3.5c-11.31-5.31-23.15-6.28-25.63-13.44-1.74-5.05 3.18-9.72 15.2-9.54 12.02.17 23.15 7.33 26.16 9.9v-22.8c-.89.88-4.76 5.33-8.31 4.59a155.23 155.23 0 0 0-31.63-3.18c-15.2.09-28.28 11.83-28.72 26.69-.62 20.76 16 26.42 25.36 29.69.96.33 2.07.7 3.26 1.08a531.9 531.9 0 0 1 20.25-12.75c2.8-1.6 6.45-3.91 10.74-6.74Z"/></svg>