<svg width="6" height="16" viewBox="0 0 6 16" fill="none" xmlns="http://www.w3.org/2000/svg"><path d="M5.83776 2.04148C6.13682 1.57717 6.00285 0.958342 5.53854 0.659288C5.37077 0.55123 5.18282 0.499708 4.99708 0.499878C4.66876 0.500174 4.34732 0.661969 4.15633 0.958515L0.667321 6.37556C0.665633 6.37818 0.663949 6.3808 0.66227 6.38342L0.318578 6.91704C-0.106193 7.57654 -0.106193 8.42348 0.31858 9.08298L0.662295 9.61663C0.663967 9.61925 0.665643 9.62186 0.667324 9.62447L4.15633 15.0415C4.26847 15.2156 4.4256 15.3433 4.60267 15.4191C4.85237 15.5259 5.14174 15.5297 5.40067 15.4151C5.44778 15.3942 5.49387 15.3695 5.53854 15.3407C6.00285 15.0417 6.13682 14.4228 5.83776 13.9585L2.34874 8.5415C2.34777 8.53998 2.34679 8.53846 2.34583 8.53694C2.13733 8.20937 2.13733 7.79064 2.34583 7.46307L5.83776 2.04148Z" fill="currentColor"/></svg>