<svg width="16" height="16" viewBox="0 0 16 16" fill="none" xmlns="http://www.w3.org/2000/svg"><path d="M14 6C14 9.15381 12.2402 11.8955 10.7637 13.6406C10.4072 14.0615 9.77734 14.1133 9.35352 13.7578C8.93262 13.4004 8.87988 12.7695 9.23633 12.3477C10.4971 10.8584 12 8.54785 12 6C12 3.79443 10.2061 2 8 2C5.79443 2 4 3.79443 4 6C4 10.4492 8.57959 14.1826 8.62549 14.2197C9.05566 14.5654 9.125 15.1943 8.77979 15.625C8.58203 15.8721 8.2915 16 7.99902 16C7.77979 16 7.55957 15.9287 7.37549 15.7812C7.15576 15.6055 2 11.418 2 6C2 2.69141 4.69141 0 8 0C11.3086 0 14 2.69141 14 6ZM8 4.49982C7.17157 4.49982 6.5 5.17139 6.5 5.99982C6.5 6.82825 7.17157 7.49982 8 7.49982C8.82843 7.49982 9.5 6.82825 9.5 5.99982C9.5 5.17139 8.82843 4.49982 8 4.49982Z" fill="currentColor"/></svg>