<svg width="16" height="16" viewBox="0 0 16 16" fill="none" xmlns="http://www.w3.org/2000/svg"><path d="M4.5 1.75C4.5 1.19772 4.94772 0.75 5.5 0.75H9.71922C10.637 0.75 11.4369 1.37459 11.6595 2.26493L11.7808 2.75H13C14.6569 2.75 16 4.09315 16 5.75V12.25C16 13.9069 14.6569 15.25 13 15.25H3C1.34315 15.25 0 13.9069 0 12.25V5.75C0 4.09315 1.34315 2.75 3 2.75H3.5C4.05228 2.75 4.5 3.19772 4.5 3.75C4.5 4.30228 4.05228 4.75 3.5 4.75H3C2.44772 4.75 2 5.19772 2 5.75V12.25C2 12.8023 2.44772 13.25 3 13.25H13C13.5523 13.25 14 12.8023 14 12.25V5.75C14 5.19772 13.5523 4.75 13 4.75H11C10.5411 4.75 10.1411 4.4377 10.0299 3.99254L9.71922 2.75H5.5C4.94772 2.75 4.5 2.30228 4.5 1.75Z" fill="currentColor"/><path fill-rule="evenodd" clip-rule="evenodd" d="M4.5 8.75C4.5 6.817 6.067 5.25 8 5.25C9.933 5.25 11.5 6.817 11.5 8.75C11.5 10.683 9.933 12.25 8 12.25C6.067 12.25 4.5 10.683 4.5 8.75ZM8 7.25C7.17157 7.25 6.5 7.92157 6.5 8.75C6.5 9.57843 7.17157 10.25 8 10.25C8.82843 10.25 9.5 9.57843 9.5 8.75C9.5 7.92157 8.82843 7.25 8 7.25Z" fill="currentColor"/><path d="M12.5 7.25C13.0523 7.25 13.5 6.80228 13.5 6.25C13.5 5.69772 13.0523 5.25 12.5 5.25C11.9477 5.25 11.5 5.69772 11.5 6.25C11.5 6.80228 11.9477 7.25 12.5 7.25Z" fill="currentColor"/></svg>