<svg width="16" height="16" viewBox="0 0 16 16" fill="none" xmlns="http://www.w3.org/2000/svg"><path d="M2 6.5C2 4.01472 4.01472 2 6.5 2C8.98528 2 11 4.01472 11 6.5C11 6.92709 10.9408 7.33869 10.8307 7.72784C10.6804 8.25928 10.9894 8.81194 11.5208 8.96225C12.0522 9.11256 12.6049 8.8036 12.7552 8.27216C12.9149 7.70765 13 7.11293 13 6.5C13 2.91015 10.0899 0 6.5 0C2.91015 0 0 2.91015 0 6.5C0 10.0899 2.91015 13 6.5 13C7.93366 13 9.25995 12.535 10.3346 11.7488L14.2929 15.7071C14.6834 16.0976 15.3166 16.0976 15.7071 15.7071C16.0976 15.3166 16.0976 14.6834 15.7071 14.2929L11.2071 9.79289C11.1638 9.74963 11.1176 9.71117 11.0691 9.67749C10.6784 9.30354 10.0585 9.30763 9.67283 9.6911C8.85815 10.5012 7.7383 11 6.5 11C4.01472 11 2 8.98528 2 6.5Z" fill="currentColor"/></svg>